<mxfile host="app.diagrams.net" modified="2023-12-16T07:15:46.760Z" agent="Mozilla/5.0 (Windows NT 10.0; Win64; x64) AppleWebKit/537.36 (KHTML, like Gecko) Chrome/118.0.5993.771 YaBrowser/23.11.2.771 Yowser/2.5 Safari/537.36" etag="OdEhGdmcnLSn-0D_tF8-" version="22.1.11" type="github">
  <diagram name="Страница — 1" id="lWXSxfd2iRM79G2UN_Gy">
    <mxGraphModel dx="1386" dy="791" grid="1" gridSize="10" guides="1" tooltips="1" connect="1" arrows="1" fold="1" page="1" pageScale="1" pageWidth="827" pageHeight="1169" math="0" shadow="0">
      <root>
        <mxCell id="0" />
        <mxCell id="1" parent="0" />
        <mxCell id="9xsJCBeeUtEPJiohK0MT-1" value="&amp;nbsp;Курьер&lt;br&gt;" style="shape=umlActor;verticalLabelPosition=bottom;verticalAlign=top;html=1;outlineConnect=0;" vertex="1" parent="1">
          <mxGeometry x="550" y="280" width="30" height="60" as="geometry" />
        </mxCell>
        <mxCell id="9xsJCBeeUtEPJiohK0MT-2" value="Админ&lt;br&gt;" style="shape=umlActor;verticalLabelPosition=bottom;verticalAlign=top;html=1;outlineConnect=0;" vertex="1" parent="1">
          <mxGeometry x="70" y="280" width="30" height="60" as="geometry" />
        </mxCell>
        <mxCell id="9xsJCBeeUtEPJiohK0MT-3" value="Покупатель" style="shape=umlActor;verticalLabelPosition=bottom;verticalAlign=top;html=1;outlineConnect=0;" vertex="1" parent="1">
          <mxGeometry x="320" y="525" width="30" height="60" as="geometry" />
        </mxCell>
        <mxCell id="9xsJCBeeUtEPJiohK0MT-5" value="Наем/Увольнение сотрудников" style="ellipse;whiteSpace=wrap;html=1;" vertex="1" parent="1">
          <mxGeometry x="210" y="140" width="120" height="80" as="geometry" />
        </mxCell>
        <mxCell id="9xsJCBeeUtEPJiohK0MT-12" value="" style="endArrow=none;html=1;rounded=0;entryX=0;entryY=0.5;entryDx=0;entryDy=0;" edge="1" parent="1" source="9xsJCBeeUtEPJiohK0MT-2" target="9xsJCBeeUtEPJiohK0MT-21">
          <mxGeometry width="50" height="50" relative="1" as="geometry">
            <mxPoint x="110" y="320" as="sourcePoint" />
            <mxPoint x="270.1121379860788" y="317.55559746881954" as="targetPoint" />
            <Array as="points" />
          </mxGeometry>
        </mxCell>
        <mxCell id="9xsJCBeeUtEPJiohK0MT-13" value="" style="endArrow=none;html=1;rounded=0;" edge="1" parent="1" target="9xsJCBeeUtEPJiohK0MT-1">
          <mxGeometry width="50" height="50" relative="1" as="geometry">
            <mxPoint x="389.8873531527556" y="317.55006282556906" as="sourcePoint" />
            <mxPoint x="540" y="330" as="targetPoint" />
          </mxGeometry>
        </mxCell>
        <mxCell id="9xsJCBeeUtEPJiohK0MT-14" value="" style="endArrow=none;html=1;rounded=0;exitX=1;exitY=0.3333333333333333;exitDx=0;exitDy=0;exitPerimeter=0;" edge="1" parent="1" source="9xsJCBeeUtEPJiohK0MT-2" target="9xsJCBeeUtEPJiohK0MT-5">
          <mxGeometry width="50" height="50" relative="1" as="geometry">
            <mxPoint x="120" y="290" as="sourcePoint" />
            <mxPoint x="200" y="220" as="targetPoint" />
          </mxGeometry>
        </mxCell>
        <mxCell id="9xsJCBeeUtEPJiohK0MT-15" value="" style="endArrow=none;html=1;rounded=0;" edge="1" parent="1" target="9xsJCBeeUtEPJiohK0MT-1">
          <mxGeometry width="50" height="50" relative="1" as="geometry">
            <mxPoint x="490" y="430" as="sourcePoint" />
            <mxPoint x="540" y="360" as="targetPoint" />
          </mxGeometry>
        </mxCell>
        <mxCell id="9xsJCBeeUtEPJiohK0MT-17" value="Получить заказ" style="ellipse;whiteSpace=wrap;html=1;" vertex="1" parent="1">
          <mxGeometry x="414" y="420" width="120" height="80" as="geometry" />
        </mxCell>
        <mxCell id="9xsJCBeeUtEPJiohK0MT-18" value="" style="endArrow=none;html=1;rounded=0;entryX=0;entryY=1;entryDx=0;entryDy=0;" edge="1" parent="1" source="9xsJCBeeUtEPJiohK0MT-3" target="9xsJCBeeUtEPJiohK0MT-17">
          <mxGeometry width="50" height="50" relative="1" as="geometry">
            <mxPoint x="370" y="560" as="sourcePoint" />
            <mxPoint x="440" y="480" as="targetPoint" />
          </mxGeometry>
        </mxCell>
        <mxCell id="9xsJCBeeUtEPJiohK0MT-19" value="Принять заказ" style="ellipse;whiteSpace=wrap;html=1;" vertex="1" parent="1">
          <mxGeometry x="100" y="440" width="120" height="80" as="geometry" />
        </mxCell>
        <mxCell id="9xsJCBeeUtEPJiohK0MT-20" value="" style="endArrow=none;html=1;rounded=0;exitX=0.342;exitY=0.05;exitDx=0;exitDy=0;exitPerimeter=0;" edge="1" parent="1" source="9xsJCBeeUtEPJiohK0MT-19" target="9xsJCBeeUtEPJiohK0MT-2">
          <mxGeometry width="50" height="50" relative="1" as="geometry">
            <mxPoint x="110" y="420" as="sourcePoint" />
            <mxPoint x="160" y="370" as="targetPoint" />
          </mxGeometry>
        </mxCell>
        <mxCell id="9xsJCBeeUtEPJiohK0MT-21" value="Передача заказа курьеру" style="ellipse;whiteSpace=wrap;html=1;" vertex="1" parent="1">
          <mxGeometry x="275" y="280" width="120" height="80" as="geometry" />
        </mxCell>
        <mxCell id="9xsJCBeeUtEPJiohK0MT-22" value="Оставить отзыв" style="ellipse;whiteSpace=wrap;html=1;" vertex="1" parent="1">
          <mxGeometry x="414" y="560" width="120" height="80" as="geometry" />
        </mxCell>
        <mxCell id="9xsJCBeeUtEPJiohK0MT-23" value="" style="endArrow=none;html=1;rounded=0;entryX=0.025;entryY=0.325;entryDx=0;entryDy=0;entryPerimeter=0;exitX=1;exitY=1;exitDx=0;exitDy=0;exitPerimeter=0;" edge="1" parent="1" source="9xsJCBeeUtEPJiohK0MT-3" target="9xsJCBeeUtEPJiohK0MT-22">
          <mxGeometry width="50" height="50" relative="1" as="geometry">
            <mxPoint x="390" y="430" as="sourcePoint" />
            <mxPoint x="440" y="380" as="targetPoint" />
          </mxGeometry>
        </mxCell>
      </root>
    </mxGraphModel>
  </diagram>
</mxfile>
